<?xml version="1.0" encoding="UTF-8" standalone="no"?>
<svg
   xmlns="http://www.w3.org/2000/svg"
   version="1.0"
   width="595.04291pt"
   height="680.26147pt"
   viewBox="0 0 595.04291 680.26147"
   preserveAspectRatio="xMidYMid meet"
   stroke="white" stroke-width="16"
   id="svg16">
  <defs
     id="defs20" />
  <path
     style="fill:none;fill-opacity:1;stroke-opacity:1;stroke-miterlimit:4;stroke-dasharray:none"
     id="path2"
     d="m 509.65938,0.71769 c -5,1.5 -11.4,7.1 -14.5,12.6 -3.6,6.4 -7.5,22 -7.5,29.9 0,13 4.4,26.8 12.4,39.4 3.5,5.5 22.2,23.8 30.5,30 16.1,12 23.3,19.3 28.5,29.1 3.9,7.3 3.9,7.6 4.4,20.2 0.4,11.2 0.2,13.7 -1.7,19.8 -4.7,14.7 -11,22.1 -25.1,29.6 -9.3,4.9 -13.6,5.6 -27.3,4.9 -6.7,-0.4 -14.4,-0.9 -17.1,-1.2 -3,-0.4 -7.4,0 -11.9,1.1 -12.8,3.1 -12.1,3.3 -34,-10.1 -17.4,-10.8 -18.7,-11.4 -29.2,-15.7 -18.2,-7.4 -32.5,-9.7 -60,-9.7 -18.3,0 -31.3,1 -38,3 -1.6,0.5 -5.7,1.4 -9,2 -15.9,3 -38.4,12.1 -76.3,30.6 -37.6,18.5 -39.3,19.2 -52.2,22.3 -13.3,3.2 -23.8,4.1 -46.3,4.1 -12.4,0 -21.6,0.4 -22.8,1 -3.5,1.9 -2.3,7.3 2.6,12.6 4.4,4.7 1.9,6.1 -5.7,3.2 -2,-0.8 -4.5,-2.2 -5.6,-3.1 -2.8,-2.6 -15.6,-4.9 -23.7,-4.2 -9.4,0.7 -18.4,2.4 -22,4 -1.6,0.7 -4.7,1.9 -6.8,2.5 -2.1,0.6 -6,2.7 -8.8,4.6 -2.8,1.9 -5.4,3.4 -5.8,3.4 -2.7,0.1 -24.1,22.1 -24.1,24.8 0,0.5 -0.9,2 -1.9,3.4 -2.9,3.6 -9.8,20.7 -10.5,25.9 -0.5,3.4 -0.3,4.9 0.8,5.8 1.8,1.5 4,0.9 11.4,-3.3 5.6,-3.2 14.7,-6.6 17.5,-6.6 2.9,0 2.6,3.3 -0.9,13.3 -6.3,17.5 -5.1,28.7 3,28.7 4,0 4.3,-0.3 10.5,-7.7 2.8,-3.5 6.9,-7.3 9.1,-8.5 2.2,-1.3 4.3,-3.1 4.6,-4 0.6,-2 7,-3.6 8.5,-2.1 0.6,0.6 0.1,3.4 -1.6,7.9 -4.4,12 -4.6,25.6 -0.4,26.7 2.2,0.6 7.9,-1 7.9,-2.2 0,-0.4 1,-1.3 2.3,-1.9 1.2,-0.6 4,-2.3 6.2,-3.7 11,-6.9 25.6,-12 41.9,-14.5 4.4,-0.6 9,-1.9 10.3,-2.7 1.7,-1.2 3.9,-1.4 8.2,-1 4.8,0.4 6.9,1.2 11.3,4.4 6.2,4.6 17.8,11.4 22.8,13.3 1.9,0.8 3.7,1.6 4,1.9 2.3,2.6 47,16.1 63.5,19.3 7.2,1.4 8.1,2.6 5.4,7.4 -5.9,10.2 -22.2,26.8 -42.9,43.5 -12.1,9.8 -15.9,12.2 -21.8,14 -2.3,0.7 -4.7,1.8 -5.3,2.6 -0.6,0.7 -1.7,1.3 -2.3,1.3 -1.9,0 -9.1,7.3 -11.8,12.1 -1.5,2.5 -3.2,7.6 -3.9,11.3 -0.9,5.6 -2,8 -6.7,14.4 -8,11.1 -21.1,29.8 -25.7,36.7 -2.2,3.3 -4.4,6.5 -5,7.2 -0.5,0.6 -3,4.1 -5.5,7.7 -2.5,3.7 -6.5,9.5 -9,13 -2.5,3.5 -5.1,7.2 -5.8,8.2 -4.2,6.3 -11.2,16.2 -12.6,17.6 -0.9,1 -1.6,2.2 -1.6,2.6 0,0.4 -1.5,2.2 -3.2,4 -2.6,2.4 -5.4,3.6 -13.4,5.7 -5.6,1.4 -12.1,3.6 -14.5,5 -9.9,5.5 -17.2,16.8 -14.9,22.9 1.1,3 1.5,3 7.6,0.5 1.7,-0.7 3.9,-0.9 4.8,-0.6 1.5,0.6 1.4,1.2 -1.2,4.9 -4.9,7.4 -9.1,15.4 -11.5,22.5 -3.1,8.7 -3.6,21.6 -1.2,26.7 3.6,7.6 6.2,7 10,-2.2 2.6,-6.3 4.2,-9.2 10.4,-18.5 1.4,-2.2 8,-9.6 14.8,-16.5 6.8,-7 14.5,-15.9 17.1,-19.9 2.6,-4 7,-10.6 9.7,-14.8 2.8,-4.2 5.9,-9.1 7,-10.9 2.6,-4.3 6.4,-9.5 15.8,-21.9 4.3,-5.6 8.5,-11.3 9.4,-12.7 1,-1.4 2.8,-3.9 4,-5.5 1.3,-1.7 3.1,-3.9 3.9,-5 4,-5.4 11.8,-15.4 14.7,-18.9 1.7,-2.1 3.6,-4.6 4.1,-5.5 0.5,-0.9 3,-4.1 5.5,-7.3 5,-6.1 6.4,-7.9 11.9,-15 2,-2.6 4.8,-5.1 6.2,-5.4 5.5,-1.5 13.8,-6.8 18.3,-11.7 3.6,-3.9 5.2,-6.7 6.8,-11.9 l 2,-6.7 14.2,-10.8 c 7.8,-5.9 16.5,-12.4 19.2,-14.5 2.8,-2.1 7.6,-5.7 10.7,-8 3.2,-2.4 8.1,-6.1 11,-8.4 5,-3.9 8.6,-5.4 20.3,-9 2.8,-0.8 5.9,-1.9 7,-2.4 1.1,-0.5 4.4,-1.8 7.3,-2.9 l 5.2,-1.9 v 2.3 c 0,3.3 -1.9,7.5 -5,11 -1.5,1.6 -4.1,6.8 -5.9,11.5 -1.7,4.7 -3.6,9.4 -4.1,10.5 -2.8,6.1 -4.9,13.4 -5.5,19 -0.6,5.5 -0.4,7 1.6,11 3.1,6.1 7.9,9.7 14,10.3 4,0.4 5.8,-0.1 11.1,-2.8 3.5,-1.8 7.7,-4.3 9.3,-5.6 1.7,-1.2 6.2,-3.2 10,-4.3 3.9,-1.1 10.8,-3.2 15.5,-4.6 4.7,-1.4 11,-3.3 14,-4.1 3,-0.9 6,-1.9 6.5,-2.4 0.6,-0.4 3.5,-1.3 6.5,-2 3,-0.7 6,-1.6 6.5,-2 0.6,-0.4 2.6,-1.1 4.5,-1.5 1.9,-0.4 4.9,-1.3 6.5,-2.1 1.7,-0.7 5.5,-2 8.5,-2.8 3,-0.8 10.9,-3.1 17.4,-5 6.6,-2 14.4,-3.7 17.4,-3.8 4.6,-0.2 5.7,0.1 7.3,2.1 1.1,1.3 1.9,3.7 1.9,5.5 0,6.6 1.3,10.5 4.5,14 2.4,2.7 4.1,3.6 6.4,3.6 3.5,0 3.4,0.2 3.1,-9.1 -0.1,-5 0.2,-6.8 1.5,-7.9 1.4,-1.1 1.8,-1 3.2,1.1 2.3,3.4 13,13.9 17.8,17.5 4.3,3.3 10.8,6.1 13.9,6 1,-0.1 2.4,-0.9 3,-1.9 0.9,-1.4 0.4,-3 -2.3,-7.9 -1.9,-3.4 -3.8,-6.7 -4.3,-7.3 -1.7,-2.1 -7.8,-11.5 -7.8,-12 0,-0.6 -4.1,-6.7 -5.1,-7.5 -0.3,-0.3 -1.4,-2 -2.3,-3.9 -2.4,-4.6 -8.6,-13.1 -11.6,-15.9 -7,-6.4 -19.3,-8.1 -32,-4.3 -3.6,1.1 -11.2,3.4 -17,5.1 -5.8,1.7 -11.4,3.5 -12.5,3.9 -1.1,0.5 -6,2.1 -11,3.6 -9.4,2.9 -33.1,10.4 -42.5,13.5 -3,1 -9.5,3 -14.5,4.5 -4.9,1.5 -10,3.1 -11.2,3.7 -2.1,1 -4.3,0.4 -4.3,-1.1 0,-1.5 11.4,-18.6 14.1,-21.3 1.6,-1.5 4.9,-3.9 7.6,-5.3 9.9,-5.2 13,-7.8 15.5,-13.1 3.7,-7.9 4.1,-8.1 24.3,-8.8 9.9,-0.3 20.9,-1 24.5,-1.6 3.6,-0.5 10.1,-1.4 14.6,-2 9.6,-1.2 17.4,-3.2 26.3,-6.6 8.5,-3.3 19,-8.3 21.7,-10.3 1.2,-0.9 3.2,-2.3 4.5,-3.1 2.4,-1.5 16,-14.9 18.8,-18.5 8,-10 12.5,-30.7 11.9,-54.3 -0.4,-14.3 -0.8,-13.6 13.6,-22.3 26.4,-16.1 39,-26 49.5,-38.9 2,-2.5 4.1,-5 4.6,-5.7 0.6,-0.7 1.5,-1.8 2.1,-2.5 2.3,-2.9 10.2,-16.7 13.3,-23.3 4.8,-10.4 5,-10.8 5.6,-13.5 0.3,-1.4 1.3,-5.9 2.2,-10 3.3,-14.2 1.6,-36.3 -3.8,-49 -2.5,-5.9 -7.8,-15.8 -9.8,-18.4 -4.3,-5.6 -19.5,-19.5 -30.4,-27.7 -15.1,-11.4 -20.9,-17.4 -22.9,-23.7 -1.3,-3.8 -1.3,-5.3 -0.3,-8.2 1.1,-3.3 1.7,-3.7 11.1,-6.7 l 9.9,-3.2 h 23.1 c 17.6,-0.1 23.4,-0.4 24.2,-1.4 1.5,-1.8 -0.6,-2.9 -9.3,-5.2 -12,-3.1 -12.5,-5.5 -1,-5.5 15.8,0 13.3,-3.8 -5.5,-8.5 -1.4,-0.3 -3.4,-1 -4.5,-1.5 -1.1,-0.5 -6.1,-2.3 -11,-3.9 -6.1,-2 -11.7,-4.8 -17.3,-8.5 -12.5,-8.5 -19.3,-11.6 -26.5,-12.1 -3.4,-0.3 -7.8,0 -9.7,0.6 z" />
</svg>
