<?xml version="1.0" encoding="UTF-8" standalone="no"?>
<svg
   xmlns="http://www.w3.org/2000/svg"
   version="1.0"
   width="595.04291pt"
   height="843.75543pt"
   viewBox="0 0 595.04291 843.75543"
   preserveAspectRatio="xMidYMid meet"
   id="svg16">
  <defs
     id="defs20" />
  <g
     transform="matrix(0.1,0,0,-0.1,-443.34062,947.61769)"
     id="g14"
     style="fill:#995bd9;fill-opacity:1;stroke:none">
    <path
       d="m 9530,9469 c -50,-15 -114,-71 -145,-126 -36,-64 -75,-220 -75,-299 0,-130 44,-268 124,-394 35,-55 222,-238 305,-300 161,-120 233,-193 285,-291 39,-73 39,-76 44,-202 4,-112 2,-137 -17,-198 -47,-147 -110,-221 -251,-296 -93,-49 -136,-56 -273,-49 -67,4 -144,9 -171,12 -30,4 -74,0 -119,-11 -128,-31 -121,-33 -340,101 -174,108 -187,114 -292,157 -182,74 -325,97 -600,97 -183,0 -313,-10 -380,-30 -16,-5 -57,-14 -90,-20 -159,-30 -384,-121 -763,-306 -376,-185 -393,-192 -522,-223 -133,-32 -238,-41 -463,-41 -124,0 -216,-4 -228,-10 -35,-19 -23,-73 26,-126 44,-47 19,-61 -57,-32 -20,8 -45,22 -56,31 -28,26 -156,49 -237,42 -94,-7 -184,-24 -220,-40 -16,-7 -47,-19 -68,-25 -21,-6 -60,-27 -88,-46 -28,-19 -54,-34 -58,-34 -27,-1 -241,-221 -241,-248 0,-5 -9,-20 -19,-34 -29,-36 -98,-207 -105,-259 -5,-34 -3,-49 8,-58 18,-15 40,-9 114,33 56,32 147,66 175,66 29,0 26,-33 -9,-133 -63,-175 -51,-287 30,-287 40,0 43,3 105,77 28,35 69,73 91,85 22,13 43,31 46,40 6,20 70,36 85,21 6,-6 1,-34 -16,-79 -44,-120 -46,-256 -4,-267 22,-6 79,10 79,22 0,4 10,13 23,19 12,6 40,23 62,37 110,69 256,120 419,145 44,6 90,19 103,27 17,12 39,14 82,10 48,-4 69,-12 113,-44 62,-46 178,-114 228,-133 19,-8 37,-16 40,-19 23,-26 470,-161 635,-193 72,-14 81,-26 54,-74 -59,-102 -222,-268 -429,-435 -121,-98 -159,-122 -218,-140 -23,-7 -47,-18 -53,-26 -6,-7 -17,-13 -23,-13 -19,0 -91,-73 -118,-121 -15,-25 -32,-76 -39,-113 -9,-56 -20,-80 -67,-144 -80,-111 -211,-298 -257,-367 -22,-33 -44,-65 -50,-72 -5,-6 -30,-41 -55,-77 -25,-37 -65,-95 -90,-130 -25,-35 -51,-72 -58,-82 -42,-63 -112,-162 -126,-176 -9,-10 -16,-22 -16,-26 0,-4 -15,-22 -32,-40 -26,-24 -54,-36 -134,-57 -56,-14 -121,-36 -145,-50 -99,-55 -172,-168 -149,-229 11,-30 15,-30 76,-5 17,7 39,9 48,6 15,-6 14,-12 -12,-49 -49,-74 -91,-154 -115,-225 -31,-87 -36,-216 -12,-267 36,-76 62,-70 100,22 26,63 42,92 104,185 14,22 80,96 148,165 68,70 145,159 171,199 26,40 70,106 97,148 28,42 59,91 70,109 26,43 64,95 158,219 43,56 85,113 94,127 10,14 28,39 40,55 13,17 31,39 39,50 40,54 118,154 147,189 17,21 36,46 41,55 5,9 30,41 55,73 50,61 64,79 119,150 20,26 48,51 62,54 55,15 138,68 183,117 36,39 52,67 68,119 l 20,67 142,108 c 78,59 165,124 192,145 28,21 76,57 107,80 32,24 81,61 110,84 50,39 86,54 203,90 28,8 59,19 70,24 11,5 44,18 73,29 l 52,19 v -23 c 0,-33 -19,-75 -50,-110 -15,-16 -41,-68 -59,-115 -17,-47 -36,-94 -41,-105 -28,-61 -49,-134 -55,-190 -6,-55 -4,-70 16,-110 31,-61 79,-97 140,-103 40,-4 58,1 111,28 35,18 77,43 93,56 17,12 62,32 100,43 39,11 108,32 155,46 47,14 110,33 140,41 30,9 60,19 65,24 6,4 35,13 65,20 30,7 60,16 65,20 6,4 26,11 45,15 19,4 49,13 65,21 17,7 55,20 85,28 30,8 109,31 174,50 66,20 144,37 174,38 46,2 57,-1 73,-21 11,-13 19,-37 19,-55 0,-66 13,-105 45,-140 24,-27 41,-36 64,-36 35,0 34,-2 31,91 -1,50 2,68 15,79 14,11 18,10 32,-11 23,-34 130,-139 178,-175 43,-33 108,-61 139,-60 10,1 24,9 30,19 9,14 4,30 -23,79 -19,34 -38,67 -43,73 -17,21 -78,115 -78,120 0,6 -41,67 -51,75 -3,3 -14,20 -23,39 -24,46 -86,131 -116,159 -70,64 -193,81 -320,43 -36,-11 -112,-34 -170,-51 -58,-17 -114,-35 -125,-39 -11,-5 -60,-21 -110,-36 -94,-29 -331,-104 -425,-135 -30,-10 -95,-30 -145,-45 -49,-15 -100,-31 -112,-37 -21,-10 -43,-4 -43,11 0,15 114,186 141,213 16,15 49,39 76,53 99,52 130,78 155,131 37,79 41,81 243,88 99,3 209,10 245,16 36,5 101,14 146,20 96,12 174,32 263,66 85,33 190,83 217,103 12,9 32,23 45,31 24,15 160,149 188,185 80,100 125,307 119,543 -4,143 -8,136 136,223 264,161 390,260 495,389 20,25 41,50 46,57 6,7 15,18 21,25 23,29 102,167 133,233 48,104 50,108 56,135 3,14 13,59 22,100 33,142 16,363 -38,490 -25,59 -78,158 -98,184 -43,56 -195,195 -304,277 -151,114 -209,174 -229,237 -13,38 -13,53 -3,82 11,33 17,37 111,67 l 99,32 h 231 c 176,1 234,4 242,14 15,18 -6,29 -93,52 -120,31 -125,55 -10,55 158,0 133,38 -55,85 -14,3 -34,10 -45,15 -11,5 -61,23 -110,39 -61,20 -117,48 -173,85 -125,85 -193,116 -265,121 -34,3 -78,0 -97,-6 z"
       id="path2"
       style="fill:#995bd9;fill-opacity:1"
    />
    <path
       d="m 6369,2265 c -217,-43 -398,-197 -469,-398 -31,-87 -39,-276 -15,-366 57,-221 237,-394 462,-447 88,-20 258,-21 345,0 402,94 601,514 419,881 -89,178 -242,291 -449,331 -90,17 -204,17 -293,-1 z m 238,-289 c 255,-68 333,-395 136,-565 -72,-61 -140,-84 -238,-79 -179,10 -305,133 -313,308 -8,159 84,286 241,335 55,18 110,18 174,1 z"
       id="path4"
       style="fill:#995bd9;fill-opacity:1"
    />
    <path
       d="m 7634,2265 c -106,-23 -174,-67 -228,-150 -88,-131 -88,-321 0,-423 47,-55 95,-82 234,-132 163,-58 199,-85 200,-148 1,-146 -214,-164 -380,-32 l -39,31 -17,-33 c -9,-18 -39,-74 -66,-125 l -49,-92 93,-45 c 51,-25 120,-53 153,-61 71,-19 252,-22 316,-5 202,51 310,181 311,375 1,106 -21,170 -77,233 -52,58 -125,98 -260,142 -107,35 -165,78 -165,119 0,63 62,111 141,111 46,0 127,-29 165,-59 l 28,-22 59,111 c 32,61 57,116 54,123 -7,18 -142,68 -227,83 -93,17 -167,16 -246,-1 z"
       id="path6"
       style="fill:#995bd9;fill-opacity:1"
    />
    <path
       d="m 4500,1660 v -590 h 155 155 l 2,357 3,357 280,-357 279,-357 h 158 158 v 590 590 h -155 -155 l -2,-361 -3,-361 -283,361 -284,361 h -154 -154 z"
       id="path8"
       style="fill:#995bd9;fill-opacity:1"
    />
    <path
       d="m 8230,2120 v -130 h 125 125 v -460 -460 h 155 155 v 460 460 h 125 125 v 130 130 h -405 -405 z"
       id="path10"
       style="fill:#995bd9;fill-opacity:1"
    />
    <path
       d="m 9150,1660 v -590 h 150 150 v 213 c 0,118 3,216 6,220 4,3 70,-93 148,-213 l 141,-220 h 188 c 103,0 187,2 187,5 0,3 -79,107 -175,233 -96,125 -175,232 -175,237 0,6 23,19 51,29 67,23 140,92 170,159 18,42 23,70 23,147 0,86 -2,101 -30,161 -56,118 -145,181 -285,199 -41,5 -181,10 -311,10 h -238 z m 474,335 c 56,-27 78,-67 73,-137 -6,-95 -62,-138 -182,-138 h -65 v 134 c 0,74 3,142 7,151 5,15 16,17 68,13 34,-3 79,-14 99,-23 z"
       id="path12"
       style="fill:#995bd9;fill-opacity:1"
    />
  </g>
</svg>
