<?xml version="1.0" encoding="UTF-8" standalone="no"?>
<svg
   xmlns:dc="http://purl.org/dc/elements/1.1/"
   xmlns:cc="http://creativecommons.org/ns#"
   xmlns:rdf="http://www.w3.org/1999/02/22-rdf-syntax-ns#"
   xmlns:svg="http://www.w3.org/2000/svg"
   xmlns="http://www.w3.org/2000/svg"
   xmlns:sodipodi="http://sodipodi.sourceforge.net/DTD/sodipodi-0.dtd"
   xmlns:inkscape="http://www.inkscape.org/namespaces/inkscape"
   viewBox="0 0 393.34 393.34"
   version="1.1"
   id="svg10"
   sodipodi:docname="Signum_Logomark_blue.svg"
   inkscape:version="0.92.5 (2060ec1f9f, 2020-04-08)">
  <metadata
     id="metadata14">
    <rdf:RDF>
      <cc:Work
         rdf:about="">
        <dc:format>image/svg+xml</dc:format>
        <dc:type
           rdf:resource="http://purl.org/dc/dcmitype/StillImage" />
        <dc:title></dc:title>
      </cc:Work>
    </rdf:RDF>
  </metadata>
  <sodipodi:namedview
     pagecolor="#ffffff"
     bordercolor="#666666"
     borderopacity="1"
     objecttolerance="10"
     gridtolerance="10"
     guidetolerance="10"
     inkscape:pageopacity="0"
     inkscape:pageshadow="2"
     inkscape:window-width="1920"
     inkscape:window-height="1016"
     id="namedview12"
     showgrid="false"
     inkscape:zoom="0.59998984"
     inkscape:cx="-60.834364"
     inkscape:cy="196.67"
     inkscape:window-x="0"
     inkscape:window-y="1107"
     inkscape:window-maximized="1"
     inkscape:current-layer="Ebene_2" />
  <defs
     id="defs4">
    <style
       id="style2">.cls-1{fill:#fff;}</style>
  </defs>
  <g
     id="Ebene_2"
     data-name="Ebene 2">
    <g
       id="Ebene_1-2"
       data-name="Ebene 1"
       style="fill:#0099ff;fill-opacity:1">
      <path
         class="cls-1"
         d="M196.67,0C88.05,0,0,88.05,0,196.67S88.05,393.34,196.67,393.34s196.67-88,196.67-196.67S305.29,0,196.67,0ZM331.34,143.47a28.72,28.72,0,0,1,0,40.56l-41,41-15.49-15.49,41-41a6.77,6.77,0,0,0,0-9.58l-14-14-11.51,11.51L274.82,141l27-27Zm-94.44,2.38,15.49-15.48,44.9,44.89L281.8,190.75ZM209.32,62a28.71,28.71,0,0,1,40.55,0l29.52,29.52-32.92,32.92L217,154a28.7,28.7,0,0,1-40.55,0l-8.12-8.12,15.49-15.49,8.11,8.12a6.78,6.78,0,0,0,9.58,0l47-47-14-14a6.78,6.78,0,0,0-9.58,0l-6.72,6.72L202.59,68.72Zm-63.47,94.44L130.37,141l44.89-44.9,15.49,15.49ZM143.47,62A28.72,28.72,0,0,1,184,62l41,41-15.49,15.48-41-41a6.78,6.78,0,0,0-9.58,0l-14,14L156.44,103,141,118.52l-27-27ZM62,143.47,91.52,114,154,176.39A28.72,28.72,0,0,1,154,217l-8.11,8.11-15.48-15.49,8.11-8.11a6.78,6.78,0,0,0,0-9.58l-47-46.95-14,14a6.78,6.78,0,0,0,0,9.58l6.72,6.72L68.72,190.75,62,184A28.72,28.72,0,0,1,62,143.47Zm94.44,104L141,263l-44.9-44.9,15.49-15.49ZM62,249.87a28.71,28.71,0,0,1,0-40.55l41-41,15.48,15.49-41,41a6.78,6.78,0,0,0,0,9.58l14,14L103,236.9l15.48,15.49-27,27Zm122,81.47a28.72,28.72,0,0,1-40.56,0L114,301.82l62.45-62.44a28.71,28.71,0,0,1,40.55,0l8.11,8.11L209.57,263l-8.11-8.11a6.78,6.78,0,0,0-9.58,0l-46.95,46.95,14,14a6.78,6.78,0,0,0,9.58,0l6.72-6.73,15.49,15.49Zm63.46-94.44L263,252.39l-44.9,44.9L202.59,281.8Zm2.38,94.44a28.7,28.7,0,0,1-40.55,0l-41-41,15.49-15.49,41,41a6.78,6.78,0,0,0,9.58,0l14-14L236.9,290.31l15.49-15.49,27,27Zm81.47-81.47-29.52,29.52L239.38,217a28.71,28.71,0,0,1,0-40.55l8.11-8.11L263,183.77l-8.11,8.11a6.78,6.78,0,0,0,0,9.58l47,47,14-14a6.77,6.77,0,0,0,0-9.58l-6.72-6.72,15.49-15.49,6.72,6.73A28.7,28.7,0,0,1,331.34,249.87Z"
         id="path6"
         style="fill:#0099ff;fill-opacity:1" />
    </g>
  </g>
</svg>
